<svg xmlns="http://www.w3.org/2000/svg" version="1.1" xmlns:xlink="http://www.w3.org/1999/xlink" xmlns:svgjs="http://svgjs.com/svgjs" width="1440" height="560" preserveAspectRatio="none" viewBox="0 0 1440 560"><g mask="url(&quot;#SvgjsMask1423&quot;)" fill="none"><rect width="1440" height="560" x="0" y="0" fill="url(#SvgjsLinearGradient1424)"></rect><path d="M235.31 589.17C395.95 549.58 445.1 123.68 696.9 114.95 948.7 106.22 927.7 184.95 1158.5 184.95 1389.29 184.95 1503.37 115.15 1620.09 114.95" stroke="rgba(0, 0, 0, 1)" stroke-width="2"></path><path d="M83.83 586.43C243.36 553.26 303.32 146.67 558.59 139.88 813.86 133.09 795.97 209.88 1033.35 209.88 1270.73 209.88 1388.14 140.07 1508.11 139.88" stroke="rgba(0, 0, 0, 1)" stroke-width="2"></path><path d="M892.09 609.35C986.55 571.06 910.41 307.74 1132.7 280.21 1354.99 252.68 1483.55 82.63 1613.93 78.61" stroke="rgba(0, 0, 0, 1)" stroke-width="2"></path><path d="M646.08 665.96C782.95 650.7 868.02 350.1 1096.97 349.49 1325.93 348.88 1428.55 504.07 1547.87 506.29" stroke="rgba(0, 0, 0, 1)" stroke-width="2"></path><path d="M218.13 590.16C411.78 566.24 527.35 129.16 847.2 128.19 1167.05 127.22 1308.89 354.24 1476.27 357.79" stroke="rgba(0, 0, 0, 1)" stroke-width="2"></path></g><defs><mask id="SvgjsMask1423"><rect width="1440" height="560" fill="#ffffff"></rect></mask><linearGradient x1="15.28%" y1="139.29%" x2="84.72%" y2="-39.29%" gradientUnits="userSpaceOnUse" id="SvgjsLinearGradient1424"><stop stop-color="#0e2a47" offset="0"></stop><stop stop-color="rgba(0, 0, 0, 1)" offset="1"></stop></linearGradient></defs></svg>